# xmcd
#
# Track frame offsets:
#	150
#	4835
#	21541
#	37391
#	56000
#	75263
#	97338
#	113962
#	134067
#	152401
#	172707
#	192832
#	211699
#	230983
#
# Disc length: 3453 seconds
#
# Revision: 0
# Processed by: cddbd v1.5.2PL0 Copyright (c) Steve Scherf et al.
# Submitted via: EasyCDDAExtractor 2010.6.0.0
#
DISCID=bf0d7b0e
DTITLE=Texta  - Grotesk 
DYEAR=2011
DGENRE=Hip-Hop
TTITLE0=Grotesk Intro [feat. Fiva]
TTITLE1=Nicht genug
TTITLE2=Oba Wie
TTITLE3=Die Dramaturgie der Ereignisse
TTITLE4=You`re Driving Me Wild
TTITLE5=Mein Baby
TTITLE6=Imma So
TTITLE7=Grotesk [feat. Soprano and Average]
TTITLE8=Ka Genie
TTITLE9=So änderst du nichts
TTITLE10=Der Die Des
TTITLE11=Strange
TTITLE12=Heaven
TTITLE13=Wo? Hin! [feat. Lylit]
EXTD=
EXTT0=
EXTT1=
EXTT2=
EXTT3=
EXTT4=
EXTT5=
EXTT6=
EXTT7=
EXTT8=
EXTT9=
EXTT10=
EXTT11=
EXTT12=
EXTT13=
PLAYORDER=
